<svg width="24" height="22" viewBox="0 0 24 22" fill="none" xmlns="http://www.w3.org/2000/svg">
<path d="M12 1.83203C14.717 1.83203 15.056 1.84119 16.122 1.88699C17.187 1.93279 17.912 2.08577 18.55 2.31295C19.21 2.54562 19.766 2.86073 20.322 3.36913C20.8305 3.82704 21.224 4.38096 21.475 4.99233C21.722 5.57584 21.89 6.24087 21.94 7.21644C21.987 8.19293 22 8.50346 22 10.9923C22 13.4812 21.99 13.7917 21.94 14.7682C21.89 15.7437 21.722 16.4079 21.475 16.9923C21.2247 17.604 20.8311 18.158 20.322 18.6155C19.822 19.0811 19.2173 19.4415 18.55 19.6717C17.913 19.8979 17.187 20.0518 16.122 20.0976C15.056 20.1407 14.717 20.1526 12 20.1526C9.283 20.1526 8.944 20.1434 7.878 20.0976C6.813 20.0518 6.088 19.8979 5.45 19.6717C4.78233 19.4422 4.17753 19.0817 3.678 18.6155C3.16941 18.1576 2.77593 17.6037 2.525 16.9923C2.277 16.4088 2.11 15.7437 2.06 14.7682C2.013 13.7917 2 13.4812 2 10.9923C2 8.50346 2.01 8.19293 2.06 7.21644C2.11 6.23996 2.277 5.57675 2.525 4.99233C2.77524 4.38058 3.1688 3.82652 3.678 3.36913C4.17767 2.90308 4.78243 2.54262 5.45 2.31295C6.088 2.08577 6.812 1.93279 7.878 1.88699C8.944 1.84394 9.283 1.83203 12 1.83203ZM12 6.41217C10.6739 6.41217 9.40215 6.89472 8.46447 7.75366C7.52678 8.6126 7 9.77758 7 10.9923C7 12.207 7.52678 13.372 8.46447 14.231C9.40215 15.0899 10.6739 15.5724 12 15.5724C13.3261 15.5724 14.5979 15.0899 15.5355 14.231C16.4732 13.372 17 12.207 17 10.9923C17 9.77758 16.4732 8.6126 15.5355 7.75366C14.5979 6.89472 13.3261 6.41217 12 6.41217ZM18.5 6.18316C18.5 5.87948 18.3683 5.58824 18.1339 5.3735C17.8995 5.15876 17.5815 5.03813 17.25 5.03813C16.9185 5.03813 16.6005 5.15876 16.3661 5.3735C16.1317 5.58824 16 5.87948 16 6.18316C16 6.48684 16.1317 6.77809 16.3661 6.99282C16.6005 7.20756 16.9185 7.3282 17.25 7.3282C17.5815 7.3282 17.8995 7.20756 18.1339 6.99282C18.3683 6.77809 18.5 6.48684 18.5 6.18316ZM12 8.24422C12.7956 8.24422 13.5587 8.53375 14.1213 9.04912C14.6839 9.56448 15 10.2635 15 10.9923C15 11.7211 14.6839 12.4201 14.1213 12.9355C13.5587 13.4509 12.7956 13.7404 12 13.7404C11.2044 13.7404 10.4413 13.4509 9.87868 12.9355C9.31607 12.4201 9 11.7211 9 10.9923C9 10.2635 9.31607 9.56448 9.87868 9.04912C10.4413 8.53375 11.2044 8.24422 12 8.24422Z" fill="white"/>
</svg>
