<svg width="24" height="22" viewBox="0 0 24 22" fill="none" xmlns="http://www.w3.org/2000/svg">
<path d="M22.162 5.18114C21.3986 5.49048 20.589 5.69364 19.76 5.78389C20.6338 5.30521 21.2877 4.55185 21.6 3.6642C20.78 4.11122 19.881 4.42451 18.944 4.59397C18.3146 3.9771 17.4804 3.56799 16.571 3.43024C15.6616 3.29248 14.7279 3.43381 13.9153 3.83225C13.1026 4.23069 12.4564 4.86391 12.0771 5.63347C11.6978 6.40304 11.6068 7.26582 11.818 8.0877C10.1551 8.01135 8.52834 7.61551 7.04329 6.92587C5.55825 6.23623 4.24813 5.26821 3.19801 4.08466C2.8263 4.6695 2.63096 5.33433 2.63201 6.01107C2.63201 7.33931 3.37001 8.51274 4.49201 9.19976C3.82802 9.18061 3.17864 9.01635 2.59801 8.72067V8.76831C2.59821 9.65292 2.93238 10.5102 3.54385 11.1949C4.15533 11.8796 5.00649 12.3495 5.95301 12.5249C5.33662 12.6779 4.69031 12.7005 4.06301 12.5909C4.32987 13.3523 4.85001 14.0182 5.5506 14.4954C6.25118 14.9726 7.09714 15.2371 7.97001 15.252C7.10249 15.8761 6.10918 16.3374 5.04689 16.6097C3.98459 16.8819 2.87413 16.9597 1.77901 16.8385C3.6907 17.9647 5.9161 18.5626 8.18901 18.5606C15.882 18.5606 20.089 12.7228 20.089 7.65992C20.089 7.49503 20.084 7.32831 20.076 7.16526C20.8949 6.62313 21.6016 5.95154 22.163 5.18206L22.162 5.18114Z" fill="white"/>
</svg>
