<svg width="24" height="22" viewBox="0 0 24 22" fill="none" xmlns="http://www.w3.org/2000/svg">
<path d="M21.543 5.9523C22 7.58466 22 10.9923 22 10.9923C22 10.9923 22 14.3999 21.543 16.0323C21.289 16.9346 20.546 17.6445 19.605 17.8845C17.896 18.3205 12 18.3205 12 18.3205C12 18.3205 6.107 18.3205 4.395 17.8845C3.45 17.6408 2.708 16.9318 2.457 16.0323C2 14.3999 2 10.9923 2 10.9923C2 10.9923 2 7.58466 2.457 5.9523C2.711 5.05001 3.454 4.34009 4.395 4.10009C6.107 3.66406 12 3.66406 12 3.66406C12 3.66406 17.896 3.66406 19.605 4.10009C20.55 4.34375 21.292 5.05276 21.543 5.9523ZM10 14.1984L16 10.9923L10 7.78619V14.1984Z" fill="white"/>
</svg>
